<svg width="14" height="18" viewBox="0 0 14 18" fill="none" xmlns="http://www.w3.org/2000/svg">
<g id="user, account, people, man">
<path id="Vector" d="M11.8358 9.11322C11.7778 9.05393 11.7086 9.00678 11.6322 8.97452C11.5558 8.94225 11.4737 8.92552 11.3908 8.9253C11.3078 8.92507 11.2257 8.94136 11.1491 8.9732C11.0725 9.00505 11.003 9.05182 10.9447 9.1108C10.8864 9.16977 10.8404 9.23976 10.8094 9.31669C10.7784 9.39362 10.763 9.47596 10.7641 9.55889C10.7653 9.64183 10.7829 9.7237 10.816 9.79975C10.8491 9.8758 10.897 9.9445 10.957 10.0018C11.4872 10.5236 11.9079 11.1461 12.1944 11.8326C12.4808 12.5192 12.6272 13.2561 12.625 14C12.625 14.7644 10.4338 15.875 7.00003 15.875C3.56622 15.875 1.37503 14.7638 1.37503 13.9987C1.37293 13.2599 1.51739 12.528 1.80005 11.8454C2.08272 11.1628 2.49797 10.5431 3.02178 10.022C3.08102 9.96427 3.12821 9.89532 3.1606 9.81918C3.19299 9.74304 3.20994 9.66123 3.21046 9.57849C3.21099 9.49575 3.19508 9.41373 3.16365 9.33718C3.13223 9.26064 3.08592 9.1911 3.02742 9.13259C2.96891 9.07408 2.89936 9.02777 2.82282 8.99635C2.74628 8.96493 2.66425 8.94902 2.58151 8.94954C2.49877 8.95007 2.41696 8.96701 2.34082 8.9994C2.26468 9.03179 2.19573 9.07898 2.13797 9.13822C1.49761 9.77522 0.989968 10.5329 0.644444 11.3674C0.29892 12.202 0.122374 13.0967 0.12503 14C0.12503 16.0297 3.6669 17.125 7.00003 17.125C10.3332 17.125 13.875 16.0297 13.875 14C13.8778 13.0907 13.6989 12.19 13.3487 11.3508C12.9985 10.5116 12.4841 9.75085 11.8358 9.11322Z" fill="#333333"/>
<path id="Vector_2" d="M7 9.625C7.86529 9.625 8.71115 9.36841 9.43062 8.88768C10.1501 8.40695 10.7108 7.72367 11.042 6.92424C11.3731 6.12482 11.4597 5.24515 11.2909 4.39648C11.1221 3.54781 10.7054 2.76826 10.0936 2.15641C9.48174 1.54456 8.70219 1.12788 7.85352 0.959066C7.00485 0.790256 6.12519 0.876896 5.32576 1.20803C4.52633 1.53916 3.84305 2.09992 3.36232 2.81938C2.88159 3.53885 2.625 4.38471 2.625 5.25C2.62634 6.40991 3.08771 7.52193 3.90789 8.34211C4.72807 9.1623 5.84009 9.62366 7 9.625ZM7 2.125C7.61807 2.125 8.22225 2.30828 8.73616 2.65166C9.25006 2.99504 9.6506 3.4831 9.88712 4.05412C10.1236 4.62514 10.1855 5.25347 10.065 5.85966C9.94437 6.46585 9.64675 7.02267 9.20971 7.45971C8.77267 7.89675 8.21585 8.19438 7.60966 8.31496C7.00347 8.43553 6.37513 8.37365 5.80411 8.13713C5.2331 7.9006 4.74504 7.50006 4.40166 6.98616C4.05828 6.47226 3.875 5.86807 3.875 5.25C3.87598 4.4215 4.20553 3.62721 4.79137 3.04137C5.37721 2.45553 6.1715 2.12598 7 2.125Z" fill="#333333"/>
</g>
</svg>
