<svg width="18" height="18" viewBox="0 0 18 18" fill="none" xmlns="http://www.w3.org/2000/svg">
<g id="Group">
<path id="Vector" d="M5.66669 3.79169C5.32502 3.79169 5.04169 3.50835 5.04169 3.16669V0.666687C5.04169 0.32502 5.32502 0.041687 5.66669 0.041687C6.00835 0.041687 6.29169 0.32502 6.29169 0.666687V3.16669C6.29169 3.50835 6.00835 3.79169 5.66669 3.79169Z" fill="#333333"/>
<path id="Vector_2" d="M12.3333 3.79169C11.9916 3.79169 11.7083 3.50835 11.7083 3.16669V0.666687C11.7083 0.32502 11.9916 0.041687 12.3333 0.041687C12.675 0.041687 12.9583 0.32502 12.9583 0.666687V3.16669C12.9583 3.50835 12.675 3.79169 12.3333 3.79169Z" fill="#333333"/>
<path id="Vector_3" d="M6.08333 11.0834C5.975 11.0834 5.86667 11.0584 5.76667 11.0168C5.65833 10.9751 5.575 10.9168 5.49167 10.8418C5.34167 10.6834 5.25 10.4751 5.25 10.2501C5.25 10.1418 5.275 10.0334 5.31667 9.93342C5.35833 9.83342 5.41667 9.74176 5.49167 9.65842C5.575 9.58342 5.65833 9.52509 5.76667 9.48342C6.06667 9.35842 6.44167 9.42509 6.675 9.65842C6.825 9.81676 6.91667 10.0334 6.91667 10.2501C6.91667 10.3001 6.90833 10.3584 6.9 10.4168C6.89167 10.4668 6.875 10.5168 6.85 10.5668C6.83333 10.6168 6.80833 10.6668 6.775 10.7168C6.75 10.7584 6.70833 10.8001 6.675 10.8418C6.51667 10.9918 6.3 11.0834 6.08333 11.0834Z" fill="#333333"/>
<path id="Vector_4" d="M9.00002 11.0832C8.89169 11.0832 8.78335 11.0582 8.68335 11.0166C8.57502 10.9749 8.49169 10.9166 8.40835 10.8416C8.25835 10.6832 8.16669 10.4749 8.16669 10.2499C8.16669 10.1416 8.19169 10.0332 8.23335 9.93322C8.27502 9.83322 8.33335 9.74155 8.40835 9.65822C8.49169 9.58322 8.57502 9.52489 8.68335 9.48322C8.98335 9.34989 9.35835 9.42489 9.59169 9.65822C9.74169 9.81655 9.83335 10.0332 9.83335 10.2499C9.83335 10.2999 9.82502 10.3582 9.81669 10.4166C9.80835 10.4666 9.79169 10.5166 9.76669 10.5666C9.75002 10.6166 9.72502 10.6666 9.69169 10.7166C9.66669 10.7582 9.62502 10.7999 9.59169 10.8416C9.43335 10.9916 9.21669 11.0832 9.00002 11.0832Z" fill="#333333"/>
<path id="Vector_5" d="M11.9166 11.0832C11.8083 11.0832 11.7 11.0582 11.6 11.0166C11.4916 10.9749 11.4083 10.9166 11.325 10.8416C11.2916 10.7999 11.2583 10.7582 11.225 10.7166C11.1916 10.6666 11.1666 10.6166 11.15 10.5666C11.125 10.5166 11.1083 10.4666 11.1 10.4166C11.0916 10.3582 11.0833 10.2999 11.0833 10.2499C11.0833 10.0332 11.175 9.81655 11.325 9.65822C11.4083 9.58322 11.4916 9.52489 11.6 9.48322C11.9083 9.34989 12.275 9.42489 12.5083 9.65822C12.6583 9.81655 12.75 10.0332 12.75 10.2499C12.75 10.2999 12.7416 10.3582 12.7333 10.4166C12.725 10.4666 12.7083 10.5166 12.6833 10.5666C12.6666 10.6166 12.6416 10.6666 12.6083 10.7166C12.5833 10.7582 12.5416 10.7999 12.5083 10.8416C12.35 10.9916 12.1333 11.0832 11.9166 11.0832Z" fill="#333333"/>
<path id="Vector_6" d="M6.08333 13.9999C5.975 13.9999 5.86667 13.975 5.76667 13.9333C5.66667 13.8917 5.575 13.8332 5.49167 13.7582C5.34167 13.5999 5.25 13.3832 5.25 13.1666C5.25 13.0582 5.275 12.9499 5.31667 12.8499C5.35833 12.7416 5.41667 12.65 5.49167 12.575C5.8 12.2667 6.36667 12.2667 6.675 12.575C6.825 12.7333 6.91667 12.9499 6.91667 13.1666C6.91667 13.3832 6.825 13.5999 6.675 13.7582C6.51667 13.9082 6.3 13.9999 6.08333 13.9999Z" fill="#333333"/>
<path id="Vector_7" d="M9.00002 13.9999C8.78335 13.9999 8.56669 13.9082 8.40835 13.7582C8.25835 13.5999 8.16669 13.3832 8.16669 13.1666C8.16669 13.0582 8.19169 12.9499 8.23335 12.8499C8.27502 12.7416 8.33335 12.65 8.40835 12.575C8.71669 12.2667 9.28335 12.2667 9.59169 12.575C9.66669 12.65 9.72502 12.7416 9.76669 12.8499C9.80835 12.9499 9.83335 13.0582 9.83335 13.1666C9.83335 13.3832 9.74169 13.5999 9.59169 13.7582C9.43335 13.9082 9.21669 13.9999 9.00002 13.9999Z" fill="#333333"/>
<path id="Vector_8" d="M11.9166 13.9999C11.7 13.9999 11.4833 13.9083 11.325 13.7583C11.25 13.6833 11.1916 13.5916 11.15 13.4833C11.1083 13.3833 11.0833 13.2749 11.0833 13.1666C11.0833 13.0583 11.1083 12.9499 11.15 12.8499C11.1916 12.7416 11.25 12.6499 11.325 12.5749C11.5166 12.3833 11.8083 12.2916 12.075 12.3499C12.1333 12.3583 12.1833 12.3749 12.2333 12.3999C12.2833 12.4166 12.3333 12.4416 12.3833 12.4749C12.425 12.4999 12.4666 12.5416 12.5083 12.5749C12.6583 12.7333 12.75 12.9499 12.75 13.1666C12.75 13.3833 12.6583 13.5999 12.5083 13.7583C12.35 13.9083 12.1333 13.9999 11.9166 13.9999Z" fill="#333333"/>
<path id="Vector_9" d="M16.0834 7.19983H1.91669C1.57502 7.19983 1.29169 6.9165 1.29169 6.57483C1.29169 6.23316 1.57502 5.94983 1.91669 5.94983H16.0834C16.425 5.94983 16.7084 6.23316 16.7084 6.57483C16.7084 6.9165 16.425 7.19983 16.0834 7.19983Z" fill="#333333"/>
<path id="Vector_10" d="M12.3333 17.9584H5.66667C2.625 17.9584 0.875 16.2084 0.875 13.1667V6.08335C0.875 3.04169 2.625 1.29169 5.66667 1.29169H12.3333C15.375 1.29169 17.125 3.04169 17.125 6.08335V13.1667C17.125 16.2084 15.375 17.9584 12.3333 17.9584ZM5.66667 2.54169C3.28333 2.54169 2.125 3.70002 2.125 6.08335V13.1667C2.125 15.55 3.28333 16.7084 5.66667 16.7084H12.3333C14.7167 16.7084 15.875 15.55 15.875 13.1667V6.08335C15.875 3.70002 14.7167 2.54169 12.3333 2.54169H5.66667Z" fill="#333333"/>
</g>
</svg>
