<svg width="20" height="20" viewBox="0 0 20 20" fill="none" xmlns="http://www.w3.org/2000/svg">
<path d="M14.8358 10.1132C14.7778 10.0539 14.7086 10.0068 14.6322 9.97452C14.5558 9.94225 14.4737 9.92552 14.3908 9.9253C14.3078 9.92507 14.2257 9.94136 14.1491 9.9732C14.0725 10.0051 14.003 10.0518 13.9447 10.1108C13.8864 10.1698 13.8404 10.2398 13.8093 10.3167C13.7783 10.3936 13.763 10.476 13.7641 10.5589C13.7653 10.6418 13.7829 10.7237 13.816 10.7998C13.8491 10.8758 13.897 10.9445 13.9569 11.0018C14.4872 11.5236 14.9079 12.1461 15.1943 12.8326C15.4808 13.5192 15.6272 14.2561 15.625 15C15.625 15.7644 13.4338 16.875 10 16.875C6.56619 16.875 4.375 15.7638 4.375 14.9987C4.37289 14.2599 4.51736 13.528 4.80002 12.8454C5.08269 12.1628 5.49794 11.5431 6.02175 11.022C6.08099 10.9643 6.12818 10.8953 6.16057 10.8192C6.19296 10.743 6.20991 10.6612 6.21043 10.5785C6.21096 10.4957 6.19504 10.4137 6.16362 10.3372C6.1322 10.2606 6.08589 10.1911 6.02739 10.1326C5.96888 10.0741 5.89933 10.0278 5.82279 9.99635C5.74625 9.96493 5.66422 9.94902 5.58148 9.94954C5.49874 9.95007 5.41693 9.96701 5.34079 9.9994C5.26465 10.0318 5.1957 10.079 5.13794 10.1382C4.49758 10.7752 3.98994 11.5329 3.64441 12.3674C3.29889 13.202 3.12234 14.0967 3.125 15C3.125 17.0297 6.66687 18.125 10 18.125C13.3331 18.125 16.875 17.0297 16.875 15C16.8778 14.0907 16.6988 13.19 16.3486 12.3508C15.9985 11.5116 15.4841 10.7508 14.8358 10.1132Z" fill="white"/>
<path d="M10 10.625C10.8653 10.625 11.7112 10.3684 12.4306 9.88768C13.1501 9.40695 13.7108 8.72367 14.042 7.92424C14.3731 7.12482 14.4597 6.24515 14.2909 5.39648C14.1221 4.54781 13.7054 3.76826 13.0936 3.15641C12.4817 2.54456 11.7022 2.12788 10.8535 1.95907C10.0049 1.79026 9.12519 1.8769 8.32576 2.20803C7.52633 2.53916 6.84305 3.09992 6.36232 3.81938C5.88159 4.53885 5.625 5.38471 5.625 6.25C5.62634 7.40991 6.08771 8.52193 6.90789 9.34211C7.72807 10.1623 8.84009 10.6237 10 10.625ZM10 3.125C10.6181 3.125 11.2223 3.30828 11.7362 3.65166C12.2501 3.99504 12.6506 4.4831 12.8871 5.05412C13.1236 5.62514 13.1855 6.25347 13.065 6.85966C12.9444 7.46585 12.6467 8.02267 12.2097 8.45971C11.7727 8.89675 11.2158 9.19438 10.6097 9.31496C10.0035 9.43553 9.37513 9.37365 8.80411 9.13713C8.2331 8.9006 7.74504 8.50006 7.40166 7.98616C7.05828 7.47226 6.875 6.86807 6.875 6.25C6.87598 5.4215 7.20553 4.62721 7.79137 4.04137C8.37721 3.45553 9.1715 3.12598 10 3.125Z" fill="white"/>
</svg>
