<svg width="20" height="20" viewBox="0 0 20 20" fill="none" xmlns="http://www.w3.org/2000/svg">
<path d="M6.66666 4.79163C6.325 4.79163 6.04166 4.50829 6.04166 4.16663V1.66663C6.04166 1.32496 6.325 1.04163 6.66666 1.04163C7.00833 1.04163 7.29166 1.32496 7.29166 1.66663V4.16663C7.29166 4.50829 7.00833 4.79163 6.66666 4.79163Z" fill="white"/>
<path d="M13.3333 4.79163C12.9917 4.79163 12.7083 4.50829 12.7083 4.16663V1.66663C12.7083 1.32496 12.9917 1.04163 13.3333 1.04163C13.675 1.04163 13.9583 1.32496 13.9583 1.66663V4.16663C13.9583 4.50829 13.675 4.79163 13.3333 4.79163Z" fill="white"/>
<path d="M7.08333 12.0834C6.975 12.0834 6.86667 12.0584 6.76667 12.0168C6.65833 11.9751 6.575 11.9168 6.49167 11.8418C6.34167 11.6834 6.25 11.4751 6.25 11.2501C6.25 11.1418 6.275 11.0334 6.31667 10.9334C6.35833 10.8334 6.41667 10.7418 6.49167 10.6584C6.575 10.5834 6.65833 10.5251 6.76667 10.4834C7.06667 10.3584 7.44167 10.4251 7.675 10.6584C7.825 10.8168 7.91667 11.0334 7.91667 11.2501C7.91667 11.3001 7.90833 11.3584 7.9 11.4168C7.89167 11.4668 7.875 11.5168 7.85 11.5668C7.83333 11.6168 7.80833 11.6668 7.775 11.7168C7.75 11.7584 7.70833 11.8001 7.675 11.8418C7.51667 11.9918 7.3 12.0834 7.08333 12.0834Z" fill="white"/>
<path d="M10 12.0832C9.89166 12.0832 9.78333 12.0582 9.68333 12.0166C9.575 11.9749 9.49166 11.9166 9.40833 11.8416C9.25833 11.6832 9.16666 11.4749 9.16666 11.2499C9.16666 11.1416 9.19166 11.0332 9.23333 10.9332C9.275 10.8332 9.33333 10.7416 9.40833 10.6582C9.49166 10.5832 9.575 10.5249 9.68333 10.4832C9.98333 10.3499 10.3583 10.4249 10.5917 10.6582C10.7417 10.8166 10.8333 11.0332 10.8333 11.2499C10.8333 11.2999 10.825 11.3582 10.8167 11.4166C10.8083 11.4666 10.7917 11.5166 10.7667 11.5666C10.75 11.6166 10.725 11.6666 10.6917 11.7166C10.6667 11.7582 10.625 11.7999 10.5917 11.8416C10.4333 11.9916 10.2167 12.0832 10 12.0832Z" fill="white"/>
<path d="M12.9167 12.0832C12.8083 12.0832 12.7 12.0582 12.6 12.0166C12.4917 11.9749 12.4083 11.9166 12.325 11.8416C12.2917 11.7999 12.2583 11.7582 12.225 11.7166C12.1917 11.6666 12.1667 11.6166 12.15 11.5666C12.125 11.5166 12.1083 11.4666 12.1 11.4166C12.0917 11.3582 12.0833 11.2999 12.0833 11.2499C12.0833 11.0332 12.175 10.8166 12.325 10.6582C12.4083 10.5832 12.4917 10.5249 12.6 10.4832C12.9083 10.3499 13.275 10.4249 13.5083 10.6582C13.6583 10.8166 13.75 11.0332 13.75 11.2499C13.75 11.2999 13.7417 11.3582 13.7333 11.4166C13.725 11.4666 13.7083 11.5166 13.6833 11.5666C13.6667 11.6166 13.6417 11.6666 13.6083 11.7166C13.5833 11.7582 13.5417 11.7999 13.5083 11.8416C13.35 11.9916 13.1333 12.0832 12.9167 12.0832Z" fill="white"/>
<path d="M7.08333 14.9999C6.975 14.9999 6.86667 14.975 6.76667 14.9333C6.66667 14.8917 6.575 14.8332 6.49167 14.7582C6.34167 14.5999 6.25 14.3832 6.25 14.1666C6.25 14.0582 6.275 13.9499 6.31667 13.8499C6.35833 13.7416 6.41667 13.65 6.49167 13.575C6.8 13.2667 7.36667 13.2667 7.675 13.575C7.825 13.7333 7.91667 13.9499 7.91667 14.1666C7.91667 14.3832 7.825 14.5999 7.675 14.7582C7.51667 14.9082 7.3 14.9999 7.08333 14.9999Z" fill="white"/>
<path d="M10 14.9999C9.78333 14.9999 9.56666 14.9082 9.40833 14.7582C9.25833 14.5999 9.16666 14.3832 9.16666 14.1666C9.16666 14.0582 9.19166 13.9499 9.23333 13.8499C9.275 13.7416 9.33333 13.65 9.40833 13.575C9.71666 13.2667 10.2833 13.2667 10.5917 13.575C10.6667 13.65 10.725 13.7416 10.7667 13.8499C10.8083 13.9499 10.8333 14.0582 10.8333 14.1666C10.8333 14.3832 10.7417 14.5999 10.5917 14.7582C10.4333 14.9082 10.2167 14.9999 10 14.9999Z" fill="white"/>
<path d="M12.9167 14.9999C12.7 14.9999 12.4833 14.9083 12.325 14.7583C12.25 14.6833 12.1917 14.5916 12.15 14.4833C12.1083 14.3833 12.0833 14.2749 12.0833 14.1666C12.0833 14.0583 12.1083 13.9499 12.15 13.8499C12.1917 13.7416 12.25 13.6499 12.325 13.5749C12.5167 13.3833 12.8083 13.2916 13.075 13.3499C13.1333 13.3583 13.1833 13.3749 13.2333 13.3999C13.2833 13.4166 13.3333 13.4416 13.3833 13.4749C13.425 13.4999 13.4667 13.5416 13.5083 13.5749C13.6583 13.7333 13.75 13.9499 13.75 14.1666C13.75 14.3833 13.6583 14.5999 13.5083 14.7583C13.35 14.9083 13.1333 14.9999 12.9167 14.9999Z" fill="white"/>
<path d="M17.0833 8.19983H2.91666C2.575 8.19983 2.29166 7.9165 2.29166 7.57483C2.29166 7.23316 2.575 6.94983 2.91666 6.94983H17.0833C17.425 6.94983 17.7083 7.23316 17.7083 7.57483C17.7083 7.9165 17.425 8.19983 17.0833 8.19983Z" fill="white"/>
<path d="M13.3333 18.9583H6.66667C3.625 18.9583 1.875 17.2083 1.875 14.1666V7.08329C1.875 4.04163 3.625 2.29163 6.66667 2.29163H13.3333C16.375 2.29163 18.125 4.04163 18.125 7.08329V14.1666C18.125 17.2083 16.375 18.9583 13.3333 18.9583ZM6.66667 3.54163C4.28333 3.54163 3.125 4.69996 3.125 7.08329V14.1666C3.125 16.55 4.28333 17.7083 6.66667 17.7083H13.3333C15.7167 17.7083 16.875 16.55 16.875 14.1666V7.08329C16.875 4.69996 15.7167 3.54163 13.3333 3.54163H6.66667Z" fill="white"/>
</svg>
