<svg width="16" height="16" viewBox="0 0 16 16" fill="none" xmlns="http://www.w3.org/2000/svg">
<path d="M7.99992 15.6546C7.88629 15.6546 2.58344 15.6546 2.58344 15.6546C2.24086 15.6546 1.95524 15.4945 1.81934 15.2262C1.68348 14.958 1.7234 14.6329 1.92613 14.3567L2.60688 13.4319C1.16348 11.9984 0.345352 10.0478 0.345352 7.99999C0.345352 3.7792 3.77918 0.345337 7.99992 0.345337C12.2208 0.345337 15.6546 3.7792 15.6546 7.99999C15.6546 12.2208 12.2208 15.6546 7.99992 15.6546ZM7.99992 14.4828C11.5746 14.4828 14.4828 11.5746 14.4828 7.99999C14.4828 4.42538 11.5746 1.51721 7.99992 1.51721C4.42535 1.51721 1.51723 4.42538 1.51723 7.99999C1.51723 9.8885 2.33887 11.6795 3.77148 12.9139L4.18258 13.2681L3.28844 14.4828H7.99992Z" fill="white"/>
<path d="M5.9593 7.99999C5.9593 8.45038 5.59422 8.81554 5.14379 8.81554C4.69328 8.81554 4.32812 8.45038 4.32812 7.99999C4.32812 7.54948 4.69328 7.18433 5.14379 7.18433C5.59422 7.18433 5.9593 7.54952 5.9593 7.99999Z" fill="white"/>
<path d="M8.0003 8.81554C8.45071 8.81554 8.81585 8.45041 8.81585 8C8.81585 7.54958 8.45071 7.18445 8.0003 7.18445C7.54989 7.18445 7.18475 7.54958 7.18475 8C7.18475 8.45041 7.54989 8.81554 8.0003 8.81554Z" fill="white"/>
<path d="M10.857 8.81562C11.3074 8.81562 11.6726 8.45047 11.6726 8.00003C11.6726 7.5496 11.3074 7.18445 10.857 7.18445C10.4066 7.18445 10.0414 7.5496 10.0414 8.00003C10.0414 8.45047 10.4066 8.81562 10.857 8.81562Z" fill="white"/>
</svg>
