<svg width="40" height="40" viewBox="0 0 40 40" fill="none" xmlns="http://www.w3.org/2000/svg">
<g id="up-right-arrow 1">
<g id="Layer 2">
<path id="Vector" d="M33.35 4.83374H10.2188C9.88727 4.83374 9.56933 4.96544 9.33491 5.19986C9.10049 5.43428 8.96879 5.75222 8.96879 6.08374C8.96879 6.41526 9.10049 6.7332 9.33491 6.96762C9.56933 7.20204 9.88727 7.33374 10.2188 7.33374H30.8988L5.25004 32.9837C5.12605 33.0979 5.02642 33.2359 4.95713 33.3895C4.88784 33.5431 4.85032 33.7091 4.84683 33.8776C4.84334 34.0461 4.87395 34.2135 4.93682 34.3698C4.99969 34.5262 5.09352 34.6682 5.21267 34.7874C5.33183 34.9065 5.47385 35.0003 5.63019 35.0632C5.78653 35.1261 5.95398 35.1567 6.12245 35.1532C6.29092 35.1497 6.45695 35.1122 6.61056 35.0429C6.76417 34.9736 6.90217 34.874 7.01629 34.75L32.6663 9.09999V29.7812C32.6663 30.1128 32.798 30.4307 33.0324 30.6651C33.2668 30.8995 33.5848 31.0312 33.9163 31.0312C34.2478 31.0312 34.5658 30.8995 34.8002 30.6651C35.0346 30.4307 35.1663 30.1128 35.1663 29.7812V6.65124C35.1656 6.16963 34.9741 5.70791 34.6337 5.36724C34.2932 5.02658 33.8317 4.83473 33.35 4.83374Z" fill="#333333"/>
</g>
</g>
</svg>
